<?xml version="1.0" encoding="utf-8"?>
<!-- Generator: Adobe Illustrator 21.0.0, SVG Export Plug-In . SVG Version: 6.00 Build 0)  -->
<svg version="1.1" id="Layer_1" xmlns="http://www.w3.org/2000/svg" xmlns:xlink="http://www.w3.org/1999/xlink" x="0px" y="0px"
	 viewBox="0 0 1926 614.2" style="enable-background:new 0 0 1926 614.2;" xml:space="preserve">
<style type="text/css">
	.st0{fill:#EF339A;}
	.st1{fill:#69E2C5;}
	.st2{fill:#C1292F;}
	.st3{fill:#FBB03B;}
	.st4{fill:#2E3192;}
	.st5{fill:#3A7DB8;}
	.st6{fill:#A6D6FA;}
	.st7{fill:#E6E6E6;}
	.st8{fill:#7C9AE5;}
	.st9{fill:#29BD5F;}
	.st10{fill:#E6ECFF;}
	.st11{fill:#8069E0;}
	.st12{fill:#8CC63F;}
</style>
<circle id="Ellipse_301" class="st0" cx="1699.4" cy="525.3" r="52.4"/>
<circle id="Ellipse_302" class="st1" cx="1464" cy="472.9" r="67.8"/>
<circle id="Ellipse_304" class="st2" cx="1145.9" cy="334.6" r="70.4"/>
<circle id="Ellipse_305" class="st3" cx="844.8" cy="297.6" r="70.4"/>
<circle id="Ellipse_306" class="st4" cx="564.2" cy="183.5" r="70.4"/>
<circle id="Ellipse_307" class="st5" cx="998.4" cy="385.5" r="148"/>
<circle id="Ellipse_308" class="st6" cx="667.5" cy="334.1" r="166.5"/>
<path class="st7" d="M223.8,74.7C187.5,49.1,143.3,34,95.5,34C61.3,34,28.9,41.7,0,55.5v179.3C51.3,156.6,130.7,98.5,223.8,74.7z"/>
<path class="st8" d="M1680.7,614.2c-3.8-10.2-5.9-21.3-5.9-32.9c0-23.1,8.3-44.2,22.1-60.5c-20.9-45.9-67.1-77.8-120.8-77.8
	c-38.9,0-73.8,16.7-98.1,43.4c19.9,38.7,32.2,82,34.8,127.8H1680.7z"/>
<path class="st9" d="M659,614.2h217.6c4.7-83.7,41.6-158.8,98.7-213c-47.3-87.7-140-147.3-246.7-147.3c-25.7,0-50.6,3.5-74.3,10
	c28.7,53.5,45,114.7,45,179.7C699.3,504.9,684.8,562.9,659,614.2z"/>
<path class="st10" d="M1478,486.4c-52.9-102.6-159.9-172.8-283.3-172.8c-85,0-162.3,33.3-219.4,87.6c-57,54.2-94,129.3-98.7,213H997
	h452.2h63.6C1510.2,568.3,1498,525,1478,486.4z"/>
<path class="st2" d="M654.3,263.9C590.1,144.2,463.8,62.8,318.5,62.8c-32.7,0-64.4,4.1-94.7,11.9C130.7,98.5,51.3,156.6,0,234.8
	v222.7v156.7h460.2H659c25.8-51.3,40.3-109.3,40.3-170.6C699.3,378.6,683,317.4,654.3,263.9z"/>
<path class="st11" d="M1768.8,487.3c-28.9,0-54.7,13-71.9,33.5c-13.8,16.4-22.1,37.5-22.1,60.5c0,11.6,2.1,22.7,5.9,32.9h22.3h105.7
	c5.1-22.1,24.9-38.5,48.5-38.5c1.8,0,3.7,0.1,5.4,0.3C1859.9,526.6,1818.9,487.3,1768.8,487.3z"/>
<path class="st12" d="M1862.6,576c-1.8-0.2-3.6-0.3-5.4-0.3c-23.6,0-43.4,16.4-48.5,38.5h48.2h48.8
	C1901,593.9,1883.8,578.3,1862.6,576z"/>
</svg>
