<?xml version="1.0" encoding="utf-8"?>
<!-- Generator: Adobe Illustrator 21.0.0, SVG Export Plug-In . SVG Version: 6.00 Build 0)  -->
<svg version="1.1" id="Layer_1" xmlns="http://www.w3.org/2000/svg" xmlns:xlink="http://www.w3.org/1999/xlink" x="0px" y="0px"
	 viewBox="0 0 37.5 34.5" style="enable-background:new 0 0 37.5 34.5;" xml:space="preserve">
<style type="text/css">
	.st0{fill:#3A7DB8;}
</style>
<path id="Path_104" class="st0" d="M16.5,21.1c2,1.2,4.5,0.5,5.7-1.4c1.2-2,0.5-4.5-1.4-5.7c-2-1.2-4.5-0.5-5.7,1.4c0,0,0,0,0,0
	C13.9,17.3,14.6,19.9,16.5,21.1z M16.1,5.3c1.9-0.4,3.8-0.3,5.7,0.3l3.9-3.2l3.6,2.1l-1,5c1.3,1.4,2.3,3.1,2.9,4.9l4.8,1.7l-0.1,4.3
	l-4.8,1.5c-0.3,0.9-0.7,1.7-1.2,2.4c-0.4,0.7-1.1,1.5-1.6,2.2l0.9,4.9l-3.7,2.1L21.6,30c-1.9,0.4-3.8,0.3-5.7-0.3l-3.9,3.2l-3.6-2.1
	l1-5c-1.3-1.4-2.3-3.1-2.9-4.9l-4.8-1.7L2,15l4.8-1.5c0.3-0.9,0.7-1.7,1.2-2.4c0.4-0.7,1.1-1.5,1.6-2.2L8.6,4l3.7-2.1L16.1,5.3z"/>
</svg>
