<?xml version="1.0" encoding="utf-8"?>
<!-- Generator: Adobe Illustrator 21.0.0, SVG Export Plug-In . SVG Version: 6.00 Build 0)  -->
<svg version="1.1" id="Layer_1" xmlns="http://www.w3.org/2000/svg" xmlns:xlink="http://www.w3.org/1999/xlink" x="0px" y="0px"
	 viewBox="0 0 416 186" style="enable-background:new 0 0 416 186;" xml:space="preserve">
<style type="text/css">
	.st0{fill:#C9C9C9;}
	.st1{fill:#FF0000;}
	.st2{fill:#009EB8;}
	.st3{fill:#0071BC;}
	.st4{fill:#1B1464;}
	.st5{fill:#93278F;}
	.st6{fill:#662D91;}
	.st7{fill:#FF1D25;}
	.st8{fill:#00A99D;}
	.st9{fill:#FFFFFF;}
	.st10{opacity:0.94;fill:#333333;}
	.st11{fill:url(#SVGID_1_);}
	.st12{fill:#3A7DB8;}
	.st13{fill:#FD1718;}
	.st14{fill:#333333;}
	.st15{font-family:'Bahnschrift';}
	.st16{font-size:85.4468px;}
	.st17{letter-spacing:-4;}
</style>
<g>
	<path class="st0" d="M-311.1-135.6c-9.3,0-16.5-2.6-21.6-7.7c-5.1-5.1-7.7-12.4-7.7-21.7v-11.2c0-9.3,2.6-16.4,7.7-21.5
		c5.1-5.1,12.3-7.6,21.6-7.6c5.3,0,10,0.9,14.3,2.8c4.3,1.9,7.7,4.6,10.2,8l-9.6,8.6c-4-4.5-8.9-6.8-14.7-6.8
		c-5.1,0-9.1,1.4-11.9,4.3c-2.8,2.9-4.2,6.9-4.2,12.1v11.2c0,5.6,1.4,9.9,4.2,12.9c2.8,3,6.8,4.5,11.9,4.5c6,0,10.9-2.4,14.7-7.2
		l9.6,8.6c-2.6,3.4-6,6-10.2,7.9C-301.1-136.5-305.8-135.6-311.1-135.6z"/>
	<path class="st0" d="M-279.9-136.6v-94.9h13.3v94.9H-279.9z M-238.8-136.6v-41.2c0-4.8-1.2-8.5-3.7-11.1c-2.5-2.6-6-3.9-10.4-3.9
		c-4.4,0-7.7,1.1-10.1,3.4c-2.4,2.3-3.6,5.5-3.6,9.6l-1.4-13c2.1-4,4.8-7.1,8.2-9.3c3.4-2.2,7.1-3.3,11.2-3.3c7.4,0,13,2.4,17.1,7.2
		c4,4.8,6,11.6,6,20.4v41.3H-238.8z"/>
	<path class="st0" d="M-193.6-135.6c-8.3,0-14.5-1.7-18.7-5.2c-4.2-3.4-6.2-8.7-6.2-15.8c0-6.7,1.9-11.7,5.7-15.1s9.5-5,17.2-5h19.2
		l0.9,10.7h-20.1c-3.4,0-6,0.8-7.8,2.3c-1.7,1.5-2.6,3.9-2.6,7.1c0,3.5,1.2,6,3.5,7.7c2.3,1.6,5.8,2.4,10.4,2.4
		c5,0,8.8-0.5,11.4-1.6c2.5-1.1,3.8-2.8,3.8-5.1l1.4,9.5c-1.2,1.8-2.6,3.3-4.4,4.5c-1.7,1.2-3.7,2.1-6,2.6
		C-188.3-135.9-190.8-135.6-193.6-135.6z M-177-136.6v-42.9c0-4.4-1.2-7.9-3.6-10.3c-2.4-2.5-5.7-3.7-10.1-3.7
		c-5.7,0-10.6,1.6-14.8,4.7l-9.7-6.7c2.6-3.1,5.9-5.5,10.1-7.2c4.2-1.7,8.9-2.6,14-2.6c8.5,0,15,2.2,19.7,6.6c4.7,4.4,7,10.6,7,18.6
		v43.5H-177z"/>
	<path class="st0" d="M-157.2-188.7v-12h30.5v12H-157.2z M-134.3-133c-5.6,0-9.6-1.5-12.1-4.6c-2.5-3.1-3.8-7.5-3.8-13.3v-69.5h13.3
		v69.6c0,1.6,0.3,2.9,1,3.8c0.7,0.9,1.6,1.4,2.9,1.4h6.4v12.7H-134.3z"/>
	<path class="st1" d="M-296.9-165.1l-0.3-0.6l0.1,0.9c0.1,0,0.2,0,0.2,0L-296.9-165.1z"/>
	<path class="st0" d="M-297.2-164.9l0.2,2.7l0-2.7C-297-164.9-297.1-164.9-297.2-164.9z"/>
	<path class="st1" d="M-344.2-247.3c-4.2-7.8-10.2-13.9-17.9-18.2c-7.5-4.2-16.2-6.4-25.9-6.4h-61.5v153.1h38.7v-51.6h22.9
		c9.7,0,18.4-2.1,25.9-6.3c7.7-4.3,13.7-10.4,17.9-18.1c4.1-7.6,6.2-16.4,6.2-26.2C-338-230.9-340-239.7-344.2-247.3z M-352.9-199.6
		c-3.3,6.1-8,10.8-14,14.2c-6,3.4-13,5-21,5h-32.9v51.6h-18.7v-133.1h9.6h9.1h32.9c8,0,15,1.7,21,5.1c6,3.4,10.7,8.1,14,14.3
		c3.3,6.1,5,13.3,5,21.5C-348-212.8-349.6-205.7-352.9-199.6z"/>
	<path class="st2" d="M-397.9-180.1l-0.3-0.6l0.1,0.9c0.1,0,0.2,0,0.2,0L-397.9-180.1z"/>
	<path class="st2" d="M-398.2-179.9l0.2,2.7l0-2.7C-398-179.9-398.1-179.9-398.2-179.9z"/>
	<path class="st2" d="M-360.1-271.3l-23.2,47l-22.5-47.3l-43.4-0.3l46.3,91.7l-0.4,61.7l38.7,0.3l0.4-61.7l47.5-91.1L-360.1-271.3z
		 M-374.2-182.4l-0.4,54.1l-18.7-0.1l0.4-54.1l-40-79.3l20.8,0.1l28.7,60.3l29.5-59.9l20.8,0.1L-374.2-182.4z"/>
</g>
<g>
	<g>
		<path class="st3" d="M-350.9,16.5c0.2,0.1,0.5,0.3,0.7,0.4c-0.6-1.4-1.2-2.7-1.9-4c-2-3.7-4.5-6.9-7.4-9.6l-7.1,4.1L-350.9,16.5z"
			/>
		<g>
			<polygon class="st4" points="-437,113.6 -424.3,113.6 -437,106.2 			"/>
			<path class="st4" d="M-359.4,3.3c-2.2-2-4.6-3.8-7.3-5.3c-6.1-3.4-13.2-5.2-21-5.2h-4.2l25.4,14.7L-359.4,3.3z"/>
			<path class="st4" d="M-403.7,81.5l-18.5,32.1h21.3V86.2c-0.3-0.5-0.6-1-0.9-1.5L-403.7,81.5z"/>
			<polygon class="st5" points="-408.5,73.2 -437,89.7 -437,106.2 -424.3,113.6 -422.2,113.6 -403.7,81.5 			"/>
			<polygon class="st6" points="-366.6,7.4 -392,-7.3 -394.1,-7.3 -420.5,38.5 			"/>
			<path class="st7" d="M-403.6,81.4l-0.1,0.1l1.8,3.2c0.3,0.5,0.6,1,0.9,1.5v-3.3L-403.6,81.4z"/>
			<polygon class="st8" points="-437,-7.3 -437,48.1 -437,67.1 -420.5,38.5 -394.1,-7.3 			"/>
			<path class="st7" d="M-387.7,75.3c7.8,0,14.9-1.7,21-5.1c6.3-3.5,11.2-8.5,14.7-14.9c3.4-6.1,5.1-13.3,5.1-21.2
				c0-6.2-1.1-12-3.2-17.2c-0.2-0.1-0.5-0.3-0.7-0.4l-15.7-9.1l-54,31.2L-437,67.1v22.6l28.5-16.5l4.8,8.3l0.1-0.1l2.7,1.5v-7.6
				H-387.7z"/>
		</g>
	</g>
	<polygon class="st9" points="-408,66.3 -408,42.3 -426.3,6.5 -406.3,6.5 -399.1,21.4 -391.8,6.5 -371.8,6.5 -390.1,42.3 
		-390.1,66.3 	"/>
</g>
<g>
	<path class="st4" d="M-307.3,96.5c-8.4,0-14.9-2.3-19.6-7s-6.9-11.2-6.9-19.6V59.8c0-8.4,2.3-14.9,6.9-19.4s11.1-6.9,19.6-6.9
		c4.8,0,9.1,0.9,12.9,2.6s7,4.1,9.2,7.2l-8.7,7.8c-3.6-4.1-8-6.1-13.3-6.1c-4.6,0-8.2,1.3-10.8,3.9c-2.6,2.6-3.8,6.3-3.8,11v10.1
		c0,5,1.3,8.9,3.8,11.6c2.6,2.7,6.2,4.1,10.8,4.1c5.4,0,9.8-2.2,13.3-6.5l8.7,7.8c-2.3,3.1-5.4,5.4-9.3,7.1
		C-298.2,95.6-302.5,96.5-307.3,96.5z"/>
	<path class="st4" d="M-277,95.6V9.8h12v85.8H-277z M-239.9,95.6V58.3c0-4.3-1.1-7.7-3.4-10s-5.4-3.5-9.4-3.5c-3.9,0-7,1-9.1,3.1
		s-3.2,4.9-3.2,8.7l-1.2-11.8c1.9-3.6,4.4-6.4,7.4-8.4c3-2,6.4-3,10.1-3c6.6,0,11.8,2.2,15.4,6.5c3.6,4.3,5.5,10.5,5.5,18.4v37.3
		H-239.9z"/>
	<path class="st4" d="M-197.8,96.5c-7.5,0-13.1-1.6-16.9-4.7c-3.8-3.1-5.6-7.9-5.6-14.3c0-6.1,1.7-10.6,5.1-13.6
		c3.4-3,8.6-4.5,15.5-4.5h17.4l0.8,9.7h-18.2c-3.1,0-5.4,0.7-7,2.1c-1.6,1.4-2.4,3.5-2.4,6.4c0,3.1,1,5.5,3.1,6.9
		c2.1,1.5,5.2,2.2,9.4,2.2c4.6,0,8-0.5,10.3-1.5s3.4-2.5,3.4-4.6l1.2,8.6c-1.1,1.7-2.4,3-4,4.1s-3.4,1.9-5.4,2.4
		C-193,96.2-195.3,96.5-197.8,96.5z M-182.8,95.6V56.8c0-4-1.1-7.1-3.2-9.3s-5.2-3.3-9.1-3.3c-5.1,0-9.6,1.4-13.4,4.2l-8.8-6
		c2.3-2.8,5.4-5,9.2-6.5s8-2.3,12.7-2.3c7.7,0,13.6,2,17.8,6c4.2,4,6.3,9.6,6.3,16.8v39.3H-182.8z"/>
	<path class="st4" d="M-163.6,45.2V34.4h27.6v10.9H-163.6z M-143,95.6c-5,0-8.7-1.4-10.9-4.2c-2.3-2.8-3.4-6.8-3.4-12V16.6h12v62.9
		c0,1.5,0.3,2.6,0.9,3.4c0.6,0.8,1.5,1.2,2.6,1.2h5.8v11.4H-143z"/>
</g>
<text transform="matrix(1 0 0 1 -313 290)" class="st15" style="font-size:48px;">Pychat</text>
<g>
	<path class="st2" d="M85.8-231l-19.8,68.7L44.5-231H27.4l30.9,95.1l-4.1,14.1c-1.4,3.5-3,5.9-4.8,7.4c-1.8,1.4-4.3,2.1-7.4,2.1
		h-3.4v18.2H42c6.7,0,11.8-1.3,15.5-4s6.7-7.2,9-13.7L102.8-231H85.8z"/>
	<path class="st1" d="M63.6-215.6c-23.3,0-42.3,18.3-43.3,41.4h-0.1v80.1h19.4v-42c6.9,4.6,15.1,7.3,24,7.3
		c24,0,43.4-19.4,43.4-43.4S87.6-215.6,63.6-215.6z M63.8-143.6c-16,0-29-13-29-29c0-16,13-29,29-29s29,13,29,29
		C92.8-156.6,79.8-143.6,63.8-143.6z"/>
</g>
<path class="st8" d="M-320,242.8c0-13.4-5.3-25.6-13.9-34.6l10.1-33.2h-19.7l-6.4,22c-6.2-2.7-13-4.2-20.1-4.2
	c-5.2,0-10.2,0.8-14.8,2.2l-6.3-20.1h-19.7l9.4,28.9c-10.8,8.7-17.9,21.8-18.6,36.6h-0.1v92.3h22.2h0.1h3.8c7.7,0,13.7-1.5,17.9-4.6
	s7.7-8.3,10.4-15.8l6.3-20.8C-336.8,286.8-320,266.8-320,242.8z M-369.8,208.8c5.6,0,10.8,1.4,15.4,3.8l-12,41.6l-13.7-43.8
	C-376.8,209.4-373.4,208.8-369.8,208.8z M-403.3,242.3c0-8,2.8-15.4,7.5-21.1l17.4,53.5C-392.7,270.9-403.3,257.8-403.3,242.3z
	 M-385.4,309.3c-2.1,1.6-5,2.5-8.6,2.5h-3.8v-27.3c6,4,12.9,6.7,20.3,7.8l-2.5,8.6C-381.4,304.8-383.3,307.7-385.4,309.3z
	 M-353.1,271.3l13.3-43.8c2.2,4.5,3.5,9.5,3.5,14.8C-336.3,254.7-343.1,265.5-353.1,271.3z"/>
<path class="st10" d="M-340,178.8l-21.7,75.4l-19.8-75.4H-400l27.7,105.7l-5.6,16.3c-1.8,4-3.7,6.8-5.8,8.5
	c-2.1,1.6-4.8,2.5-8.1,2.5h-3.6l-1.7,21h3.6c7.1,0,12.7-1.5,16.8-4.6c4.1-3,8.9-8.8,12-16.3l44.6-133.8L-340,178.8z"/>
<linearGradient id="SVGID_1_" gradientUnits="userSpaceOnUse" x1="-381.8094" y1="316.6646" x2="-367.1135" y2="173.1029">
	<stop  offset="0" style="stop-color:#00A99D"/>
	<stop  offset="0.1099" style="stop-color:#05A69A"/>
	<stop  offset="0.2343" style="stop-color:#129D92"/>
	<stop  offset="0.3659" style="stop-color:#298E84"/>
	<stop  offset="0.5023" style="stop-color:#497870"/>
	<stop  offset="0.6426" style="stop-color:#725D56"/>
	<stop  offset="0.7861" style="stop-color:#A43C37"/>
	<stop  offset="0.9295" style="stop-color:#DE1513"/>
	<stop  offset="1" style="stop-color:#FD0000"/>
</linearGradient>
<path class="st11" d="M-343.5,175l-20.6,71.4c-0.7,2.3-3.9,2.4-4.7,0l-22.3-71.5h-19.7l35.6,109.6l-4.7,16.3c-1.6,4-3.4,6.8-5.5,8.5
	c-2.1,1.6-5,2.5-8.6,2.5h-3.9v21c0,0,3.9,0,3.9,0c7.7,0,13.7-1.5,17.9-4.6s7.7-8.3,10.4-15.8l41.8-137.4H-343.5z"/>
<text transform="matrix(1 0 0 1 118.9995 -117.9839)" class="st0 st15 st16">Pychat</text>
<g>
	<path class="st12" d="M106.8,25L86.9,93.8L65.5,25H48.4l30.9,95.1l-4.1,14.1c-1.4,3.5-3,5.9-4.8,7.4s-4.3,2.1-7.4,2.1h-3.4v18.2H63
		c6.7,0,11.8-1.3,15.5-4c3.7-2.6,6.7-7.2,9-13.7L123.8,25H106.8z"/>
	<path class="st13" d="M84.6,40.5c-23.3,0-42.3,18.3-43.3,41.4h-0.1v80.1h19.4v-42c6.9,4.6,15.1,7.3,24,7.3
		c24,0,43.4-19.4,43.4-43.4S108.6,40.5,84.6,40.5z M84.8,112.5c-16,0-29-13-29-29c0-16,13-29,29-29s29,13,29,29
		C113.8,99.5,100.8,112.5,84.8,112.5z"/>
</g>
<text transform="matrix(1 0 0 1 148.9995 120.9797)" class="st14 st15 st16 st17">pychat</text>
</svg>
